# xmcd
#
# Track frame offsets:
#	150
#	12045
#	24585
#	36310
#	47212
#	57735
#	71210
#	81757
#	92617
#	104792
#	114147
#	125530
#	136615
#	148552
#	160577
#	172092
#	184252
#	196720
#	208152
#	218312
#
# Disc length: 3073 seconds
#
# Revision: 0
# Processed by: cddbd v1.4PL0 Copyright (c) Steve Scherf et al.
# Submitted via: dBpowerAMP V4.0
#
DISCID=1a0bff14
DTITLE=Jimmy Cracklin - Jm The Walk
DYEAR=1900
DGENRE=Blues/Jazz
TTITLE0=Get Back
TTITLE1=The Walk
TTITLE2=Later On
TTITLE3=The Georgia Slop
TTITLE4=The Wobble
TTITLE5=Just Got To Know
TTITLE6=Susie and Pat
TTITLE7=Shame Shame Shame
TTITLE8=(Take) Advice
TTITLE9=The Bitter and The Sweet
TTITLE10=I'll See It Through
TTITLE11=Some-One
TTITLE12=Looking For A Women
TTITLE13=Every Night Every Day 
TTITLE14=Think
TTITLE15=My Answer
TTITLE16=R.M. Blues
TTITLE17=Come On Home(Back Where You Belong)
TTITLE18=Pretty Little Sweet Thing
TTITLE19=You Aint Nothing But The Devil
EXTD=
EXTT0=
EXTT1=
EXTT2=
EXTT3=
EXTT4=
EXTT5=
EXTT6=
EXTT7=
EXTT8=
EXTT9=
EXTT10=
EXTT11=
EXTT12=
EXTT13=
EXTT14=
EXTT15=
EXTT16=
EXTT17=
EXTT18=
EXTT19=
PLAYORDER=
